# xmcd
# 
# Track frame offsets:
#     150
#     18584
#     34570
#     54182
#     73335
#     99273
#     112657
#     126282
#     145955
#     172013
#     185884
#     199277
#     220141
#     245987
#     265067
#     288384
#     306354
#     326004
# 
# Disc length: 4650
# 
# Revision: 2
# Processed by: cddbd v1.5.2PL0 Copyright (c) Steve Scherf et al.
# Submitted via: fre:ac v1.0.31
# 
DISCID=18122812
DTITLE=The Moody Blues - Timeless Flight Disc 2
DYEAR=2013
DGENRE=Rock/Pop
TTITLE0=Higher and Higher
TTITLE1=Gypsy
TTITLE2=Eternity Road
TTITLE3=Watching and Waiting
TTITLE4=Question
TTITLE5=And the Tide Rushes In
TTITLE6=Don't You Feel Small
TTITLE7=Dawning is the Day
TTITLE8=Melancholy Man
TTITLE9=It's Up to You
TTITLE10=The Story in Your Eyes
TTITLE11=After You Came
TTITLE12=One More Time to Live
TTITLE13=I'm Just a Singer (In a Rock and Roll Band
TTITLE14=New Horizons
TTITLE15=For My Lady
TTITLE16=You and Me
TTITLE17=When You're a Free Man
EXTD=
EXTT0=
EXTT1=
EXTT2=
EXTT3=
EXTT4=
EXTT5=
EXTT6=
EXTT7=
EXTT8=
EXTT9=
EXTT10=
EXTT11=
EXTT12=
EXTT13=
EXTT14=
EXTT15=
EXTT16=
EXTT17=
PLAYORDER=
